<svg xmlns="http://www.w3.org/2000/svg" xmlns:xlink="http://www.w3.org/1999/xlink" version="1.1" id="Layer_1" x="0px" y="0px" enable-background="new 0 0 1024 1024" xml:space="preserve" viewBox="170.06 192.32 680.18 647.65">
<path fill="currentColor" opacity="1.000000" stroke="none" d=" M658.027954,602.992249   C678.794861,628.199097 700.973267,651.835999 718.938293,678.814087   C733.340576,700.442078 743.038086,723.987671 741.963013,750.382263   C740.261475,792.158875 713.480835,828.024170 668.891663,837.524597   C641.386353,843.385071 615.780518,837.489868 590.378784,827.732056   C573.607971,821.289795 557.246948,813.610779 539.670898,809.464050   C512.380859,803.025391 485.874298,806.362732 459.702087,815.774597   C439.509827,823.035950 419.840790,831.912476 398.815735,836.711182   C368.980133,843.520874 340.649811,840.166992 315.518707,821.790588   C287.719543,801.463318 276.846527,773.136475 279.271301,739.304443   C281.426514,709.233582 296.334778,684.773254 313.818787,661.457092   C332.721802,636.248657 354.389984,613.316895 373.782776,588.522949   C388.766693,569.365784 403.284058,549.821594 419.888092,532.015076   C433.909332,516.978394 448.861023,502.813141 467.869568,494.207764   C505.001007,477.397949 539.689514,483.128082 571.673035,507.236694   C594.603821,524.521484 612.911133,546.429565 630.812378,568.636292   C639.906982,579.918091 648.811951,591.352722 658.027954,602.992249  M418.718506,603.835510   C425.929169,608.995850 432.794739,607.364075 436.727417,599.333069   C439.945953,592.760315 442.854950,586.052063 446.541321,579.695679   C462.964935,551.376526 501.352478,530.032104 530.695557,543.869202   C535.294617,546.038025 539.712402,544.103455 542.694092,540.272156   C545.704163,536.404297 546.683655,531.966003 544.223816,527.181641   C541.645386,522.166626 537.216370,519.811279 532.184631,518.177429   C518.543213,513.748108 504.680359,513.048340 490.888397,516.900452   C453.391876,527.373169 429.104492,552.060852 415.556488,587.987366   C413.473389,593.511414 413.920074,598.790894 418.718506,603.835510  z"/>
<path fill="currentColor" opacity="1.000000" stroke="none" d=" M492.731812,372.512817   C490.605316,394.110168 485.820770,414.365723 473.016754,431.903412   C448.846527,465.009430 402.392365,467.045380 375.036621,436.371063   C358.410889,417.728424 347.828613,395.786285 340.130859,372.374420   C331.505676,346.141968 326.488983,319.209534 326.929443,291.470581   C327.383362,262.880646 335.403473,237.054428 355.277496,215.687927   C383.599792,185.238785 436.093658,182.069412 465.543335,221.704330   C480.054108,241.233658 486.189117,264.011169 490.151794,287.456970   C493.681854,308.342926 494.906891,329.446075 494.081573,350.632324   C493.803070,357.780792 493.243378,364.918304 492.731812,372.512817  M381.942444,276.351562   C380.909882,285.474609 379.899200,294.634979 384.268555,303.244171   C386.865936,308.362030 391.855316,310.340546 397.792419,309.034180   C402.771606,307.938568 406.378052,303.722931 406.644562,298.358032   C406.759216,296.049835 406.592896,293.691833 406.248169,291.402527   C403.814178,275.237885 411.502563,259.863373 425.951721,252.047470   C428.135834,250.866013 430.389801,249.680328 432.267914,248.090683   C438.768402,242.588654 437.796783,233.577179 430.459839,229.261475   C424.370026,225.679352 418.529419,227.081390 412.917572,230.173767   C395.008881,240.042282 385.412659,255.643936 381.942444,276.351562  z"/>
<path fill="currentColor" opacity="1.000000" stroke="none" d=" M666.296631,405.171204   C657.495361,421.660614 647.413757,436.592529 631.680237,446.868927   C604.770752,464.444916 571.697876,460.948608 552.190125,438.562592   C538.712280,423.096191 531.636414,404.855499 528.759705,384.880951   C523.436096,347.915558 525.830444,311.139221 533.024719,274.688141   C536.748840,255.819336 543.137756,237.730942 554.577698,221.906967   C582.375488,183.456543 637.464233,182.487534 668.166931,218.997772   C682.715393,236.298157 690.174500,256.516327 692.252869,278.712067   C696.142273,320.249451 685.909790,359.248138 670.016113,397.125885   C668.921814,399.733765 667.633728,402.260284 666.296631,405.171204  M584.543213,311.845734   C584.583496,311.347534 584.621582,310.849121 584.664307,310.351135   C586.823730,285.171722 593.485901,262.508392 617.587463,248.976288   C623.234619,245.805649 624.406189,239.699402 621.649780,234.188110   C619.001282,228.892715 612.704712,226.037827 606.825317,227.847443   C599.852661,229.993576 593.874329,234.003250 588.712952,239.057434   C568.773499,258.582855 560.259583,282.793976 560.171082,310.265625   C560.146667,317.836517 565.249390,323.704926 571.700928,324.485474   C577.139954,325.143555 582.478882,320.184875 584.543213,311.845734  z"/>
<path fill="currentColor" opacity="1.000000" stroke="none" d=" M322.701599,418.350739   C341.639313,448.227997 353.543274,480.348907 356.908447,515.196472   C358.909821,535.921448 355.693726,556.210327 344.496918,574.315369   C327.969025,601.040649 297.430328,611.499634 267.568848,601.587524   C250.027298,595.764771 236.313278,584.674316 224.368546,571.193298   C198.354858,541.833618 180.125671,508.133057 172.502899,469.616760   C167.381165,443.737701 169.742065,418.370361 185.101135,395.298157   C208.405426,360.290741 251.248749,355.751740 281.819946,375.330780   C298.931061,386.289368 311.390167,401.478821 322.701599,418.350739  M255.468430,396.872925   C247.288147,394.557281 241.284760,396.513641 236.142426,403.154022   C229.014709,412.358124 225.663300,422.808441 226.411209,434.390778   C227.131042,445.538361 231.306488,455.449036 238.756836,463.767151   C243.686035,469.270477 251.114136,469.933746 256.273407,465.871460   C261.603668,461.674500 262.256073,455.624542 258.086365,448.946655   C257.204254,447.533936 256.249908,446.165619 255.388672,444.740692   C249.049835,434.252899 250.185257,425.115753 258.861115,416.644531   C266.050476,409.624878 265.062775,402.531555 255.468430,396.872925  z"/>
<path fill="currentColor" opacity="1.000000" stroke="none" d=" M812.562805,550.540100   C801.342163,566.856812 789.234192,581.933350 772.402832,592.219971   C752.349670,604.475647 730.811951,609.764893 707.997559,601.368652   C684.232971,592.622803 670.997559,574.150635 665.802124,550.084961   C661.159729,528.581055 662.863831,507.003357 668.653442,485.841736   C677.634460,453.015259 691.658691,422.717346 714.065674,396.685486   C727.434387,381.153992 742.937195,369.379486 763.702698,365.327972   C791.201172,359.962769 820.398865,372.133820 835.587952,395.860229   C849.208435,417.136383 852.701050,440.484558 848.664856,464.872803   C843.501465,496.071716 830.962097,524.404663 812.562805,550.540100  M727.738342,473.482819   C730.123108,465.625305 733.459595,458.138885 738.065552,451.395782   C748.081909,436.731812 760.467529,425.136658 778.623047,421.140350   C785.746460,419.572388 789.895081,414.311584 789.572632,408.705139   C789.232056,402.782990 784.449280,398.012787 777.225403,397.004211   C770.171997,396.019440 763.726196,398.723602 757.619568,401.657135   C723.926147,417.842834 707.327209,446.195801 701.062073,481.815430   C699.312988,491.759735 705.668701,497.283875 711.566956,498.399200   C717.286011,499.480591 723.058472,493.783508 724.716675,485.878296   C725.534302,481.980133 726.618591,478.137878 727.738342,473.482819  z"/>
</svg>